P2
10 6
255
0 114 255 114 0 0 0 0 0 0 
0 0 123 255 123 0 0 0 0 0 
0 0 0 112 255 101 0 0 0 0 
0 0 0 0 115 255 103 0 0 0 
0 0 0 0 0 111 255 121 0 0 
0 0 0 0 0 0 145 255 135 0 
